<svg width="25" height="24" viewBox="0 0 25 24" fill="none" xmlns="http://www.w3.org/2000/svg">
<g id="Group">
<path id="Vector" d="M12.5 2C15.217 2 15.556 2.01 16.622 2.06C17.687 2.11 18.412 2.277 19.05 2.525C19.71 2.779 20.266 3.123 20.822 3.678C21.3305 4.1779 21.724 4.78259 21.975 5.45C22.222 6.087 22.39 6.813 22.44 7.878C22.487 8.944 22.5 9.283 22.5 12C22.5 14.717 22.49 15.056 22.44 16.122C22.39 17.187 22.222 17.912 21.975 18.55C21.7247 19.2178 21.3311 19.8226 20.822 20.322C20.322 20.8303 19.7173 21.2238 19.05 21.475C18.413 21.722 17.687 21.89 16.622 21.94C15.556 21.987 15.217 22 12.5 22C9.783 22 9.444 21.99 8.378 21.94C7.313 21.89 6.588 21.722 5.95 21.475C5.28233 21.2245 4.67753 20.8309 4.178 20.322C3.66941 19.8222 3.27593 19.2175 3.025 18.55C2.777 17.913 2.61 17.187 2.56 16.122C2.513 15.056 2.5 14.717 2.5 12C2.5 9.283 2.51 8.944 2.56 7.878C2.61 6.812 2.777 6.088 3.025 5.45C3.27524 4.78218 3.6688 4.17732 4.178 3.678C4.67767 3.16923 5.28243 2.77573 5.95 2.525C6.588 2.277 7.312 2.11 8.378 2.06C9.444 2.013 9.783 2 12.5 2ZM12.5 7C11.1739 7 9.90215 7.52678 8.96447 8.46447C8.02678 9.40215 7.5 10.6739 7.5 12C7.5 13.3261 8.02678 14.5979 8.96447 15.5355C9.90215 16.4732 11.1739 17 12.5 17C13.8261 17 15.0979 16.4732 16.0355 15.5355C16.9732 14.5979 17.5 13.3261 17.5 12C17.5 10.6739 16.9732 9.40215 16.0355 8.46447C15.0979 7.52678 13.8261 7 12.5 7ZM19 6.75C19 6.41848 18.8683 6.10054 18.6339 5.86612C18.3995 5.6317 18.0815 5.5 17.75 5.5C17.4185 5.5 17.1005 5.6317 16.8661 5.86612C16.6317 6.10054 16.5 6.41848 16.5 6.75C16.5 7.08152 16.6317 7.39946 16.8661 7.63388C17.1005 7.8683 17.4185 8 17.75 8C18.0815 8 18.3995 7.8683 18.6339 7.63388C18.8683 7.39946 19 7.08152 19 6.75ZM12.5 9C13.2956 9 14.0587 9.31607 14.6213 9.87868C15.1839 10.4413 15.5 11.2044 15.5 12C15.5 12.7956 15.1839 13.5587 14.6213 14.1213C14.0587 14.6839 13.2956 15 12.5 15C11.7044 15 10.9413 14.6839 10.3787 14.1213C9.81607 13.5587 9.5 12.7956 9.5 12C9.5 11.2044 9.81607 10.4413 10.3787 9.87868C10.9413 9.31607 11.7044 9 12.5 9Z" fill="#09121F"/>
</g>
</svg>
